<?xml version="1.0" encoding="utf-8"?>
<!-- Generator: Adobe Illustrator 23.0.4, SVG Export Plug-In . SVG Version: 6.00 Build 0)  -->
<svg version="1.1" id="Layer_1" xmlns="http://www.w3.org/2000/svg" xmlns:xlink="http://www.w3.org/1999/xlink" x="0px" y="0px"
	 viewBox="0 0 265.8 67.3" style="enable-background:new 0 0 265.8 67.3;" xml:space="preserve">
<style type="text/css">
	.st0{fill:#FF9134;}
	.st1{enable-background:new    ;}
	.st2{fill:#9D9D9D;}
</style>
<g id="logo" transform="translate(-266.205 -23.669)">
	<g id="Path_1">
		<path class="st0" d="M323.6,23.7l-5.8,6.3h15.3l-28,48.6l-18.6-32.3l0.5-0.5l15.9-15.9v0l5.7-6.1h-42.3L305.1,91L344,23.7
			L323.6,23.7z M293.9,29.9l-10.7,10.7L277,29.9H293.9z"/>
	</g>
	<g id="Group_290" transform="translate(10)">
		<g class="st1">
			<path d="M351,31.3c1.5,0,2.8,0.2,3.9,1.1c1.1,1,1.4,2.3,1.4,3.3c0,2.2-1.4,4.3-4.9,4.3H350v6.7h-1.7V31.3H351z M350,38.4h1.4
				c2,0,3.2-1,3.2-2.8c0-2.4-2.3-2.7-3.4-2.7H350V38.4z"/>
			<path d="M360.5,31.3v13.7h4.2v1.6h-5.9V31.3H360.5z"/>
			<path d="M374.9,32.9h-6.3v4.6h6.1v1.6h-6.1v6h6.3v1.6h-8V31.3h8V32.9z"/>
			<path d="M386.5,42.3H380l-1.8,4.3h-1.9l7.1-16.1l6.9,16.1h-1.9L386.5,42.3z M385.9,40.7l-2.6-6.1l-2.6,6.1H385.9z"/>
			<path d="M399,34.4c-0.2-0.4-0.6-0.9-0.9-1.1c-0.3-0.2-0.8-0.5-1.7-0.5c-1.5,0-2.6,0.9-2.6,2.4c0,0.6,0.2,0.9,0.6,1.3
				c0.5,0.5,1,0.7,1.6,1l1.5,0.6c0.9,0.4,1.7,0.8,2.4,1.4c0.8,0.8,1.1,1.7,1.1,2.8c0,2.8-2.1,4.7-4.9,4.7c-1,0-2.3-0.2-3.3-1.2
				c-0.8-0.7-1.2-1.8-1.4-2.7l1.7-0.5c0.1,0.8,0.5,1.5,0.9,2c0.7,0.7,1.4,0.9,2.2,0.9c2.1,0,3.1-1.5,3.1-3c0-0.7-0.2-1.3-0.8-1.8
				c-0.4-0.4-1-0.7-1.8-1.1l-1.4-0.6c-0.6-0.3-1.4-0.6-2-1.3c-0.7-0.6-1.1-1.4-1.1-2.5c0-2.4,1.8-4,4.3-4c0.9,0,1.7,0.2,2.5,0.7
				c0.6,0.4,1.1,1,1.5,1.7L399,34.4z"/>
			<path d="M412.5,42.3H406l-1.8,4.3h-1.9l7.1-16.1l6.9,16.1h-1.9L412.5,42.3z M411.8,40.7l-2.6-6.1l-2.6,6.1H411.8z"/>
			<path d="M418.3,46.7v-16l12,12.5V31.3h1.7v16l-12-12.5v11.8H418.3z"/>
			<path d="M439.7,32.9v13.7H438V32.9h-3.7v-1.6h9.2v1.6H439.7z"/>
			<path d="M451.2,31.3l4.3,11.7l4.3-11.7h1.9l-6.2,16.3l-6.2-16.3H451.2z"/>
			<path d="M471.2,42.3h-6.5l-1.8,4.3h-1.9l7.1-16.1l6.9,16.1H473L471.2,42.3z M470.5,40.7l-2.6-6.1l-2.6,6.1H470.5z"/>
			<path d="M478.7,31.3v13.7h4.2v1.6H477V31.3H478.7z"/>
			<path d="M487,31.3v13.7h4.2v1.6h-5.9V31.3H487z"/>
			<path d="M501.4,32.9h-6.3v4.6h6.1v1.6h-6.1v6h6.3v1.6h-8V31.3h8V32.9z"/>
			<path d="M507.8,40.1l-5-8.7h2l3.9,6.9l4-6.9h2l-5.1,8.7v6.6h-1.7V40.1z"/>
		</g>
		<g class="st1">
			<path d="M366.1,58.1c-0.5-0.5-1.2-1.1-2-1.4c-0.8-0.4-1.7-0.6-2.6-0.6c-3.5,0-6.2,2.9-6.2,6.4c0,4.2,3.4,6.3,6.2,6.3
				c1,0,2-0.3,2.9-0.7c0.9-0.4,1.5-1,1.8-1.3v2.1c-1.7,1.2-3.5,1.5-4.6,1.5c-4.6,0-7.9-3.4-7.9-7.9c0-4.6,3.4-8,8-8
				c0.9,0,2.7,0.1,4.5,1.5V58.1z"/>
			<path d="M368.4,62.4c0-4.6,3.6-7.9,8-7.9s8,3.4,8,7.9c0,4.6-3.5,7.9-8,7.9S368.4,67,368.4,62.4z M370.2,62.4
				c0,3.5,2.8,6.3,6.2,6.3s6.2-2.8,6.2-6.3c0-3.5-2.8-6.3-6.2-6.3S370.2,58.9,370.2,62.4z"/>
			<path d="M387.5,70.1v-16l12,12.5V54.7h1.7v16l-12-12.5v11.8H387.5z"/>
			<path d="M412,57.8c-0.2-0.4-0.6-0.9-0.9-1.1c-0.3-0.2-0.9-0.5-1.7-0.5c-1.5,0-2.6,0.9-2.6,2.4c0,0.6,0.2,0.9,0.6,1.3
				c0.5,0.5,1,0.7,1.6,1l1.5,0.6c0.9,0.4,1.7,0.8,2.4,1.4c0.8,0.8,1.1,1.7,1.1,2.8c0,2.8-2.1,4.7-4.9,4.7c-1,0-2.3-0.2-3.3-1.2
				c-0.8-0.7-1.2-1.8-1.4-2.7l1.7-0.5c0.1,0.8,0.5,1.5,0.9,2c0.7,0.7,1.4,0.9,2.2,0.9c2.1,0,3.1-1.5,3.1-3c0-0.7-0.2-1.3-0.8-1.8
				c-0.4-0.4-1-0.7-1.8-1.1l-1.4-0.6c-0.6-0.3-1.4-0.6-2-1.3c-0.7-0.6-1.1-1.4-1.1-2.5c0-2.4,1.8-4,4.3-4c0.9,0,1.7,0.2,2.5,0.7
				c0.6,0.4,1.1,1,1.5,1.7L412,57.8z"/>
			<path d="M419.9,56.3v13.7h-1.7V56.3h-3.7v-1.6h9.2v1.6H419.9z"/>
			<path d="M428.4,54.7c1,0,2.6,0.1,3.7,0.9c0.9,0.6,1.7,1.8,1.7,3.4c0,2.3-1.5,4.1-3.9,4.2l4.9,6.9h-2.1l-4.7-6.7h-0.4v6.7h-1.7
				V54.7H428.4z M427.6,61.8h1.1c2.1,0,3.4-1,3.4-2.8c0-0.9-0.3-1.7-1.2-2.3c-0.7-0.4-1.5-0.4-2.2-0.4h-1V61.8z"/>
			<path d="M439.1,64.1c0,1.3,0,2.7,1.2,3.7c0.6,0.5,1.7,0.9,2.5,0.9s1.9-0.3,2.5-0.9c1.2-1,1.2-2.4,1.2-3.7v-9.4h1.7v9.9
				c0,1.3-0.1,2.5-1,3.7c-0.9,1.3-2.5,2.1-4.5,2.1c-2,0-3.6-0.8-4.5-2.1c-0.8-1.1-1-2.4-1-3.7v-9.9h1.7V64.1z"/>
			<path d="M464,58.1c-0.5-0.5-1.2-1.1-2-1.4c-0.8-0.4-1.7-0.6-2.6-0.6c-3.5,0-6.2,2.9-6.2,6.4c0,4.2,3.4,6.3,6.2,6.3
				c1,0,2-0.3,2.9-0.7c0.9-0.4,1.5-1,1.8-1.3v2.1c-1.7,1.2-3.5,1.5-4.6,1.5c-4.6,0-7.9-3.4-7.9-7.9c0-4.6,3.4-8,8-8
				c0.9,0,2.7,0.1,4.5,1.5V58.1z"/>
			<path d="M470.9,56.3v13.7h-1.7V56.3h-3.7v-1.6h9.2v1.6H470.9z"/>
			<path d="M478.7,54.7v15.3H477V54.7H478.7z"/>
			<path d="M481.8,62.4c0-4.6,3.6-7.9,8-7.9s8,3.4,8,7.9c0,4.6-3.5,7.9-8,7.9C485.3,70.3,481.8,67,481.8,62.4z M483.5,62.4
				c0,3.5,2.8,6.3,6.2,6.3s6.2-2.8,6.2-6.3c0-3.5-2.8-6.3-6.2-6.3S483.5,58.9,483.5,62.4z"/>
			<path d="M500.9,70.1v-16l12,12.5V54.7h1.7v16l-12-12.5v11.8H500.9z"/>
		</g>
		<g id="Group_289" transform="translate(-4 4)">
			<g class="st1">
				<path class="st2" d="M415.2,78.1c-0.1-0.2-0.3-0.4-0.4-0.5c-0.1-0.1-0.4-0.3-0.8-0.3c-0.7,0-1.2,0.5-1.2,1.1
					c0,0.3,0.1,0.5,0.3,0.6c0.2,0.2,0.5,0.3,0.8,0.5l0.7,0.3c0.4,0.2,0.8,0.4,1.1,0.7c0.4,0.4,0.5,0.8,0.5,1.3c0,1.4-1,2.3-2.3,2.3
					c-0.5,0-1.1-0.1-1.6-0.6c-0.4-0.4-0.6-0.9-0.7-1.3l0.8-0.2c0.1,0.4,0.2,0.7,0.4,0.9c0.3,0.3,0.7,0.4,1.1,0.4
					c1,0,1.5-0.7,1.5-1.5c0-0.3-0.1-0.6-0.4-0.9c-0.2-0.2-0.5-0.3-0.9-0.5l-0.7-0.3c-0.3-0.1-0.6-0.3-1-0.6
					c-0.3-0.3-0.5-0.6-0.5-1.2c0-1.1,0.9-1.9,2.1-1.9c0.5,0,0.8,0.1,1.2,0.3c0.3,0.2,0.5,0.5,0.7,0.8L415.2,78.1z"/>
				<path class="st2" d="M418.4,76.7V84h-0.8v-7.3H418.4z"/>
				<path class="st2" d="M420.3,84v-7.6l5.7,6v-5.7h0.8v7.7l-5.7-6V84H420.3z"/>
				<path class="st2" d="M434.3,78.3c-0.2-0.2-0.6-0.5-1-0.7c-0.4-0.2-0.8-0.3-1.3-0.3c-1.7,0-2.9,1.4-2.9,3.1c0,2,1.6,3,3,3
					c0.5,0,1-0.1,1.4-0.3c0.4-0.2,0.7-0.5,0.8-0.6v1c-0.8,0.6-1.7,0.7-2.2,0.7c-2.2,0-3.8-1.7-3.8-3.8c0-2.2,1.6-3.8,3.8-3.8
					c0.4,0,1.3,0.1,2.2,0.7V78.3z"/>
				<path class="st2" d="M439.6,77.4h-3v2.2h2.9v0.8h-2.9v2.8h3V84h-3.8v-7.3h3.8V77.4z"/>
				<path class="st2" d="M445.7,77.4h-1.2l0.4-0.8h1.6V84h-0.8V77.4z"/>
				<path class="st2" d="M449.7,83.7l1.7-2.3c-0.2,0.1-0.4,0.1-0.6,0.1c-1.4,0-2.4-1.1-2.4-2.4c0-1.5,1.1-2.5,2.5-2.5
					c1.7,0,2.5,1.3,2.5,2.5c0,0.3-0.1,0.9-0.6,1.7l-2.5,3.5L449.7,83.7z M449.2,79c0,1,0.7,1.7,1.7,1.7c1,0,1.7-0.7,1.7-1.7
					c0-1-0.7-1.7-1.7-1.7C449.9,77.3,449.2,78,449.2,79z"/>
				<path class="st2" d="M458.3,77.4h-4v-0.7h5.4l-4.9,7.5l-0.6-0.4L458.3,77.4z"/>
				<path class="st2" d="M464.5,82c0,1.1-0.7,2.2-2.2,2.2s-2.2-1-2.2-2.2c0-0.8,0.4-1.5,1.1-1.8c-0.6-0.3-0.9-0.9-0.9-1.6
					c0-1,0.7-2,2-2s2,1,2,2c0,0.7-0.3,1.3-0.9,1.6C464.2,80.5,464.5,81.2,464.5,82z M463.7,82c0-0.8-0.6-1.4-1.4-1.4
					s-1.4,0.6-1.4,1.4c0,0.8,0.6,1.4,1.4,1.4C463.1,83.4,463.7,82.8,463.7,82z M463.5,78.6c0-0.8-0.6-1.3-1.3-1.3
					c-0.7,0-1.3,0.5-1.3,1.3c0,0.7,0.5,1.3,1.3,1.3C463,79.9,463.5,79.3,463.5,78.6z"/>
			</g>
			<g id="Rectangle_2">
				<rect x="379" y="80" class="st2" width="23.7" height="1.2"/>
			</g>
			<g id="Rectangle_3">
				<rect x="473" y="80" class="st2" width="23.7" height="1.2"/>
			</g>
		</g>
	</g>
</g>
</svg>
